<svg xmlns="http://www.w3.org/2000/svg" viewBox="0 0 1440 944" width="1440" height="944" role="img">
<title>Organizing notebooks, sections and pages</title>
<defs>
<pattern id="hatch" width="8" height="8" patternUnits="userSpaceOnUse" patternTransform="rotate(45)">
<rect width="8" height="8" fill="#C2185B" fill-opacity="0.08"/>
<line x1="0" y1="0" x2="0" y2="8" stroke="#C2185B" stroke-opacity="0.45" stroke-width="2"/></pattern>
<filter id="shadow" x="-10%" y="-10%" width="120%" height="130%">
<feDropShadow dx="0" dy="4" stdDeviation="6" flood-color="#2B2521" flood-opacity="0.16"/></filter>
</defs>
<rect x="0" y="0" width="1440" height="900" rx="0" fill="#F3EEE6"/>
<rect x="0" y="0" width="1440" height="40" rx="0" fill="#F3EEE6"/><rect x="14" y="10" width="16" height="20" rx="3" fill="#FFFCF6" stroke="#2B2521" stroke-width="1.5"/><path d="M17 24c2-6 5-7 6-3s3 4 5-2" fill="none" stroke-linecap="round" stroke-linejoin="round" stroke="#3B6A4D" stroke-width="1.8"/><text x="40" y="25" font-size="13" font-weight="600" fill="#2B2521" text-anchor="start" font-family="'Atkinson Hyperlegible Next', 'Segoe UI', system-ui, sans-serif">OpenNote</text><text x="122" y="25" font-size="13" font-weight="400" fill="#5C534A" text-anchor="start" font-family="'Atkinson Hyperlegible Next', 'Segoe UI', system-ui, sans-serif">Biology 101  ›  Lectures  ›  Cell structure</text><text x="1274" y="25" font-size="15" font-weight="400" fill="#5C534A" text-anchor="middle" font-family="'Atkinson Hyperlegible Next', 'Segoe UI', system-ui, sans-serif">☾</text><text x="1246" y="25" font-size="12" font-weight="400" fill="#5C534A" text-anchor="end" font-family="'Atkinson Hyperlegible Next', 'Segoe UI', system-ui, sans-serif">✓ Saved</text><text x="1325" y="25" font-size="13" font-weight="400" fill="#5C534A" text-anchor="middle" font-family="'Atkinson Hyperlegible Next', 'Segoe UI', system-ui, sans-serif">—</text><text x="1371" y="25" font-size="13" font-weight="400" fill="#5C534A" text-anchor="middle" font-family="'Atkinson Hyperlegible Next', 'Segoe UI', system-ui, sans-serif">▢</text><text x="1417" y="25" font-size="13" font-weight="400" fill="#5C534A" text-anchor="middle" font-family="'Atkinson Hyperlegible Next', 'Segoe UI', system-ui, sans-serif">✕</text>
<rect x="0" y="40" width="1440" height="44" rx="0" fill="#F3EEE6"/><line x1="0" y1="84" x2="1440" y2="84" stroke="#E3DACC"/><text x="20" y="67" font-size="14" font-weight="600" fill="#2B2521" text-anchor="start" font-family="'Atkinson Hyperlegible Next', 'Segoe UI', system-ui, sans-serif">Home</text><rect x="20" y="78" width="32" height="3" rx="1.5" fill="#3B6A4D"/><text x="84" y="67" font-size="14" font-weight="400" fill="#5C534A" text-anchor="start" font-family="'Atkinson Hyperlegible Next', 'Segoe UI', system-ui, sans-serif">Insert</text><text x="148" y="67" font-size="14" font-weight="400" fill="#5C534A" text-anchor="start" font-family="'Atkinson Hyperlegible Next', 'Segoe UI', system-ui, sans-serif">Draw</text><text x="212" y="67" font-size="14" font-weight="400" fill="#5C534A" text-anchor="start" font-family="'Atkinson Hyperlegible Next', 'Segoe UI', system-ui, sans-serif">View</text><line x1="290" y1="50" x2="290" y2="74" stroke="#E3DACC"/><rect x="306" y="48" width="27" height="28" rx="8" fill="none"/><text x="319.5" y="67" font-size="13" font-weight="400" fill="#2B2521" text-anchor="middle" font-family="'Atkinson Hyperlegible Next', 'Segoe UI', system-ui, sans-serif">B</text><rect x="339" y="48" width="27" height="28" rx="8" fill="none"/><text x="352.5" y="67" font-size="13" font-weight="400" fill="#2B2521" text-anchor="middle" font-family="'Atkinson Hyperlegible Next', 'Segoe UI', system-ui, sans-serif">I</text><rect x="372" y="48" width="83" height="28" rx="8" fill="none"/><text x="413.5" y="67" font-size="13" font-weight="400" fill="#2B2521" text-anchor="middle" font-family="'Atkinson Hyperlegible Next', 'Segoe UI', system-ui, sans-serif">Heading ▾</text><rect x="461" y="48" width="62" height="28" rx="8" fill="none"/><text x="492" y="67" font-size="13" font-weight="400" fill="#2B2521" text-anchor="middle" font-family="'Atkinson Hyperlegible Next', 'Segoe UI', system-ui, sans-serif">• List</text><rect x="529" y="48" width="69" height="28" rx="8" fill="none"/><text x="563.5" y="67" font-size="13" font-weight="400" fill="#2B2521" text-anchor="middle" font-family="'Atkinson Hyperlegible Next', 'Segoe UI', system-ui, sans-serif">☐ To-do</text><rect x="604" y="48" width="55" height="28" rx="8" fill="none"/><text x="631.5" y="67" font-size="13" font-weight="400" fill="#2B2521" text-anchor="middle" font-family="'Atkinson Hyperlegible Next', 'Segoe UI', system-ui, sans-serif">Tag ▾</text>
<rect x="0" y="84" width="272" height="816" rx="0" fill="#F3EEE6"/><line x1="272" y1="84" x2="272" y2="900" stroke="#E3DACC"/><text x="20" y="114" font-size="11" font-weight="700" fill="#6B6054" text-anchor="start" font-family="'Atkinson Hyperlegible Next', 'Segoe UI', system-ui, sans-serif">NOTEBOOKS</text><text x="244" y="115" font-size="15" font-weight="400" fill="#5C534A" text-anchor="middle" font-family="'Atkinson Hyperlegible Next', 'Segoe UI', system-ui, sans-serif">+</text><rect x="20" y="141" width="12" height="12" rx="3" fill="#2E7048"/><text x="40" y="152" font-size="13" font-weight="600" fill="#2B2521" text-anchor="start" font-family="'Atkinson Hyperlegible Next', 'Segoe UI', system-ui, sans-serif">Biology 101</text><rect x="8" y="164" width="256" height="30" rx="6" fill="#DDE8DA"/><circle cx="42" cy="179" r="4" fill="#2E7048"/><text x="56" y="184" font-size="13" font-weight="400" fill="#2B2521" text-anchor="start" font-family="'Atkinson Hyperlegible Next', 'Segoe UI', system-ui, sans-serif">Lectures</text><circle cx="42" cy="211" r="4" fill="#B8620F"/><text x="56" y="216" font-size="13" font-weight="400" fill="#2B2521" text-anchor="start" font-family="'Atkinson Hyperlegible Next', 'Segoe UI', system-ui, sans-serif">Labs</text><text x="36" y="248" font-size="13" font-weight="400" fill="#5C534A" text-anchor="start" font-family="'Atkinson Hyperlegible Next', 'Segoe UI', system-ui, sans-serif">▾ Exam prep</text><circle cx="58" cy="275" r="4" fill="#6A4A9C"/><text x="72" y="280" font-size="13" font-weight="400" fill="#2B2521" text-anchor="start" font-family="'Atkinson Hyperlegible Next', 'Segoe UI', system-ui, sans-serif">Midterm</text><rect x="8" y="292" width="256" height="30" rx="6" fill="#E2ECE1" stroke="#3B6A4D" stroke-width="2"/><circle cx="58" cy="307" r="4" fill="#2F4F9A"/><text x="72" y="312" font-size="13" font-weight="400" fill="#2B2521" text-anchor="start" font-family="'Atkinson Hyperlegible Next', 'Segoe UI', system-ui, sans-serif">Final</text><rect x="20" y="333" width="12" height="12" rx="3" fill="#B0342A"/><text x="40" y="344" font-size="13" font-weight="600" fill="#2B2521" text-anchor="start" font-family="'Atkinson Hyperlegible Next', 'Segoe UI', system-ui, sans-serif">Work</text><circle cx="42" cy="371" r="4" fill="#B0342A"/><text x="56" y="376" font-size="13" font-weight="400" fill="#2B2521" text-anchor="start" font-family="'Atkinson Hyperlegible Next', 'Segoe UI', system-ui, sans-serif">Meetings</text><circle cx="42" cy="403" r="4" fill="#6E4B2E"/><text x="56" y="408" font-size="13" font-weight="400" fill="#2B2521" text-anchor="start" font-family="'Atkinson Hyperlegible Next', 'Segoe UI', system-ui, sans-serif">Projects</text><rect x="20" y="429" width="12" height="12" rx="3" fill="#6A4A9C"/><text x="40" y="440" font-size="13" font-weight="600" fill="#2B2521" text-anchor="start" font-family="'Atkinson Hyperlegible Next', 'Segoe UI', system-ui, sans-serif">Personal</text><text x="20" y="848" font-size="13" font-weight="400" fill="#5C534A" text-anchor="start" font-family="'Atkinson Hyperlegible Next', 'Segoe UI', system-ui, sans-serif">Trash</text><text x="20" y="880" font-size="13" font-weight="400" fill="#5C534A" text-anchor="start" font-family="'Atkinson Hyperlegible Next', 'Segoe UI', system-ui, sans-serif">⚙ Settings</text>
<rect x="272" y="84" width="300" height="816" rx="0" fill="#F3EEE6"/><line x1="572" y1="84" x2="572" y2="900" stroke="#E3DACC"/><text x="292" y="118" font-size="17" font-weight="600" fill="#2B2521" text-anchor="start" font-family="'Atkinson Hyperlegible Next', 'Segoe UI', system-ui, sans-serif">Lectures</text><rect x="488" y="100" width="68" height="28" rx="8" fill="none" stroke="#877B6C" stroke-width="1"/><text x="522" y="119" font-size="13" font-weight="400" fill="#2B2521" text-anchor="middle" font-family="'Atkinson Hyperlegible Next', 'Segoe UI', system-ui, sans-serif">+ Page</text><rect x="280" y="144" width="284" height="50" rx="6" fill="#DDE8DA"/><text x="292" y="166" font-size="14" font-weight="500" fill="#2B2521" text-anchor="start" font-family="'Atkinson Hyperlegible Next', 'Segoe UI', system-ui, sans-serif">Cell structure</text><text x="292" y="184" font-size="12" font-weight="400" fill="#6B6054" text-anchor="start" font-family="'Atkinson Hyperlegible Next', 'Segoe UI', system-ui, sans-serif">Sep 28 · 3 recordings</text><text x="308" y="222" font-size="14" font-weight="500" fill="#2B2521" text-anchor="start" font-family="'Atkinson Hyperlegible Next', 'Segoe UI', system-ui, sans-serif">Membranes</text><text x="308" y="240" font-size="12" font-weight="400" fill="#6B6054" text-anchor="start" font-family="'Atkinson Hyperlegible Next', 'Segoe UI', system-ui, sans-serif">Sep 28</text><text x="292" y="278" font-size="14" font-weight="500" fill="#6B6054" text-anchor="start" font-family="'Atkinson Hyperlegible Next', 'Segoe UI', system-ui, sans-serif">Mitosis</text><text x="292" y="296" font-size="12" font-weight="400" fill="#6B6054" text-anchor="start" font-family="'Atkinson Hyperlegible Next', 'Segoe UI', system-ui, sans-serif">Sep 23</text><text x="292" y="334" font-size="14" font-weight="500" fill="#2B2521" text-anchor="start" font-family="'Atkinson Hyperlegible Next', 'Segoe UI', system-ui, sans-serif">Meiosis</text><text x="292" y="352" font-size="12" font-weight="400" fill="#6B6054" text-anchor="start" font-family="'Atkinson Hyperlegible Next', 'Segoe UI', system-ui, sans-serif">Sep 21</text><text x="292" y="390" font-size="14" font-weight="500" fill="#2B2521" text-anchor="start" font-family="'Atkinson Hyperlegible Next', 'Segoe UI', system-ui, sans-serif">Photosynthesis</text><text x="292" y="408" font-size="12" font-weight="400" fill="#6B6054" text-anchor="start" font-family="'Atkinson Hyperlegible Next', 'Segoe UI', system-ui, sans-serif">Sep 16</text>
<rect x="572" y="84" width="868" height="816" rx="0" fill="#FFFCF6"/>
<text x="636" y="172" font-size="30" font-weight="600" fill="#2B2521" text-anchor="start" font-family="'Atkinson Hyperlegible Next', 'Segoe UI', system-ui, sans-serif">Cell structure</text><text x="636" y="198" font-size="13" font-weight="400" fill="#6B6054" text-anchor="start" font-family="'Atkinson Hyperlegible Next', 'Segoe UI', system-ui, sans-serif">Sunday, Sep 28, 2026 · 10:05 AM</text><text x="636" y="244" font-size="20" font-weight="600" fill="#2B2521" text-anchor="start" font-family="'Atkinson Hyperlegible Next', 'Segoe UI', system-ui, sans-serif">Organelles</text><rect x="636" y="262" width="380" height="7" rx="3.5" fill="#877B6C"/><rect x="636" y="278" width="420" height="7" rx="3.5" fill="#877B6C"/><rect x="636" y="294" width="350" height="7" rx="3.5" fill="#877B6C"/><rect x="636" y="310" width="300" height="7" rx="3.5" fill="#877B6C"/><path d="M1106 322c30-60 150-60 170 0s-30 90-90 90-100-30-80-90z" fill="none" stroke-linecap="round" stroke-linejoin="round" stroke="#2F4F9A" stroke-width="3"/><path d="M1176 357a22 18 0 1 0 1 0" fill="none" stroke-linecap="round" stroke-linejoin="round" stroke="#B0342A" stroke-width="3"/><path d="M1236 312l60-40" fill="none" stroke-linecap="round" stroke-linejoin="round" stroke="#2B2521" stroke-width="2"/><text x="1300" y="272" font-size="18" font-weight="400" fill="#2B2521" text-anchor="start" font-family="Literata, Cambria, Georgia, serif" font-style="italic">nucleus</text><text x="636" y="362" font-size="20" font-weight="600" fill="#2B2521" text-anchor="start" font-family="'Atkinson Hyperlegible Next', 'Segoe UI', system-ui, sans-serif">Key terms</text><rect x="634" y="376" width="150" height="20" rx="3" fill="#F2CF4A66"/><rect x="636" y="383" width="140" height="7" rx="3.5" fill="#877B6C"/><rect x="636" y="399" width="360" height="7" rx="3.5" fill="#877B6C"/><rect x="636" y="415" width="330" height="7" rx="3.5" fill="#877B6C"/>
<rect x="150" y="314" width="190" height="50" rx="8" fill="#FFFDF9" stroke="#3B6A4D" stroke-width="1" filter="url(#shadow)"/><text x="164" y="336" font-size="14" font-weight="500" fill="#2B2521" text-anchor="start" font-family="'Atkinson Hyperlegible Next', 'Segoe UI', system-ui, sans-serif">Mitosis</text><text x="164" y="354" font-size="12" font-weight="400" fill="#3B6A4D" text-anchor="start" font-family="'Atkinson Hyperlegible Next', 'Segoe UI', system-ui, sans-serif">Move 1 page to Final</text><path d="M140 298l0 18 5-5 4 8 3-1-4-8 7 0z" fill="none" stroke-linecap="round" stroke-linejoin="round" stroke="#2B2521" stroke-width="1.5"/>
<rect x="452" y="334" width="210" height="236" rx="10" fill="#FFFDF9" stroke="#E3DACC" stroke-width="1" filter="url(#shadow)"/><text x="468" y="362" font-size="13" font-weight="400" fill="#2B2521" text-anchor="start" font-family="'Atkinson Hyperlegible Next', 'Segoe UI', system-ui, sans-serif">Open in new window</text><rect x="458" y="374" width="198" height="30" rx="6" fill="#ECE5DA"/><text x="468" y="394" font-size="13" font-weight="400" fill="#2B2521" text-anchor="start" font-family="'Atkinson Hyperlegible Next', 'Segoe UI', system-ui, sans-serif">Move to…</text><text x="468" y="426" font-size="13" font-weight="400" fill="#2B2521" text-anchor="start" font-family="'Atkinson Hyperlegible Next', 'Segoe UI', system-ui, sans-serif">Make subpage</text><text x="468" y="458" font-size="13" font-weight="400" fill="#2B2521" text-anchor="start" font-family="'Atkinson Hyperlegible Next', 'Segoe UI', system-ui, sans-serif">Duplicate</text><text x="468" y="490" font-size="13" font-weight="400" fill="#2B2521" text-anchor="start" font-family="'Atkinson Hyperlegible Next', 'Segoe UI', system-ui, sans-serif">Copy link to page</text><text x="468" y="522" font-size="13" font-weight="400" fill="#2B2521" text-anchor="start" font-family="'Atkinson Hyperlegible Next', 'Segoe UI', system-ui, sans-serif">Export…</text><text x="468" y="554" font-size="13" font-weight="400" fill="#A8342A" text-anchor="start" font-family="'Atkinson Hyperlegible Next', 'Segoe UI', system-ui, sans-serif">Delete</text>
<rect x="2" y="124" width="268" height="28" rx="0" fill="none" stroke="#6A3FB5" stroke-width="1.5" stroke-dasharray="6 4"/>
<rect x="2" y="796" width="268" height="28" rx="0" fill="none" stroke="#6A3FB5" stroke-width="1.5" stroke-dasharray="6 4"/>
<rect x="20" y="772" width="371" height="17" rx="8.5" fill="#FFFFFF" stroke="#6A3FB5" stroke-width="1"/><text x="26" y="784" font-size="11" font-weight="600" fill="#6A3FB5" text-anchor="start" font-family="'Atkinson Hyperlegible Next', 'Segoe UI', system-ui, sans-serif">Auto-scroll strips (28) at both ends while dragging</text>
<rect x="4" y="258" width="264" height="66" rx="0" fill="none" stroke="#6A3FB5" stroke-width="1.5" stroke-dasharray="6 4"/><rect x="10" y="262" width="308" height="17" rx="8.5" fill="#FFFFFF" stroke="#6A3FB5" stroke-width="1"/><text x="16" y="274" font-size="11" font-weight="600" fill="#6A3FB5" text-anchor="start" font-family="'Atkinson Hyperlegible Next', 'Segoe UI', system-ui, sans-serif">Rows 32 (44 on touch), indent 16 per level</text>
<rect x="452" y="572" width="238" height="17" rx="8.5" fill="#FFFFFF" stroke="#6A3FB5" stroke-width="1"/><text x="458" y="584" font-size="11" font-weight="600" fill="#6A3FB5" text-anchor="start" font-family="'Atkinson Hyperlegible Next', 'Segoe UI', system-ui, sans-serif">Right-click or long-press a page</text>
<rect x="150" y="376" width="245" height="17" rx="8.5" fill="#FFFFFF" stroke="#6A3FB5" stroke-width="1"/><text x="156" y="388" font-size="11" font-weight="600" fill="#6A3FB5" text-anchor="start" font-family="'Atkinson Hyperlegible Next', 'Segoe UI', system-ui, sans-serif">Drop target fills with the accent</text>
<rect x="0" y="900" width="1440" height="44" rx="0" fill="#FFFFFF"/><line x1="0" y1="900" x2="1440" y2="900" stroke="#D9D9D9"/><rect x="16" y="914" width="28" height="16" rx="0" fill="url(#hatch)" stroke="#C2185B" stroke-width="1" stroke-dasharray="4 3"/><text x="52" y="927" font-size="12" font-weight="400" fill="#333" text-anchor="start" font-family="'Atkinson Hyperlegible Next', 'Segoe UI', system-ui, sans-serif">Keep-out zone: nothing interactive or important goes here</text><rect x="470" y="914" width="28" height="16" rx="0" fill="none" stroke="#6A3FB5" stroke-width="1.5" stroke-dasharray="6 4"/><text x="506" y="927" font-size="12" font-weight="400" fill="#333" text-anchor="start" font-family="'Atkinson Hyperlegible Next', 'Segoe UI', system-ui, sans-serif">Layout region with its size in pixels (at 100% scaling)</text><text x="1424" y="927" font-size="12" font-weight="400" fill="#666" text-anchor="end" font-family="'Atkinson Hyperlegible Next', 'Segoe UI', system-ui, sans-serif">OpenNote wireframe · colors from brand/tokens.json</text>
</svg>
