<svg xmlns="http://www.w3.org/2000/svg" viewBox="0 0 1440 944" width="1440" height="944" role="img">
<title>Settings: appearance and updates</title>
<defs>
<pattern id="hatch" width="8" height="8" patternUnits="userSpaceOnUse" patternTransform="rotate(45)">
<rect width="8" height="8" fill="#C2185B" fill-opacity="0.08"/>
<line x1="0" y1="0" x2="0" y2="8" stroke="#C2185B" stroke-opacity="0.45" stroke-width="2"/></pattern>
<filter id="shadow" x="-10%" y="-10%" width="120%" height="130%">
<feDropShadow dx="0" dy="4" stdDeviation="6" flood-color="#2B2521" flood-opacity="0.16"/></filter>
</defs>
<rect x="0" y="0" width="1440" height="900" rx="0" fill="#F3EEE6"/>
<rect x="0" y="0" width="1440" height="40" rx="0" fill="#F3EEE6"/><rect x="14" y="10" width="16" height="20" rx="3" fill="#FFFCF6" stroke="#2B2521" stroke-width="1.5"/><path d="M17 24c2-6 5-7 6-3s3 4 5-2" fill="none" stroke-linecap="round" stroke-linejoin="round" stroke="#3B6A4D" stroke-width="1.8"/><text x="40" y="25" font-size="13" font-weight="600" fill="#2B2521" text-anchor="start" font-family="'Atkinson Hyperlegible Next', 'Segoe UI', system-ui, sans-serif">OpenNote</text><text x="122" y="25" font-size="13" font-weight="400" fill="#5C534A" text-anchor="start" font-family="'Atkinson Hyperlegible Next', 'Segoe UI', system-ui, sans-serif">Settings</text><text x="1274" y="25" font-size="15" font-weight="400" fill="#5C534A" text-anchor="middle" font-family="'Atkinson Hyperlegible Next', 'Segoe UI', system-ui, sans-serif">☾</text><text x="1246" y="25" font-size="12" font-weight="400" fill="#5C534A" text-anchor="end" font-family="'Atkinson Hyperlegible Next', 'Segoe UI', system-ui, sans-serif">✓ Saved</text><rect x="1066" y="9" width="104" height="22" rx="11" fill="#E2ECE1"/><text x="1118" y="24" font-size="12" font-weight="600" fill="#3B6A4D" text-anchor="middle" font-family="'Atkinson Hyperlegible Next', 'Segoe UI', system-ui, sans-serif">↻ Update ready</text><text x="1325" y="25" font-size="13" font-weight="400" fill="#5C534A" text-anchor="middle" font-family="'Atkinson Hyperlegible Next', 'Segoe UI', system-ui, sans-serif">—</text><text x="1371" y="25" font-size="13" font-weight="400" fill="#5C534A" text-anchor="middle" font-family="'Atkinson Hyperlegible Next', 'Segoe UI', system-ui, sans-serif">▢</text><text x="1417" y="25" font-size="13" font-weight="400" fill="#5C534A" text-anchor="middle" font-family="'Atkinson Hyperlegible Next', 'Segoe UI', system-ui, sans-serif">✕</text>
<rect x="240" y="40" width="1200" height="860" rx="0" fill="#FFFCF6"/>
<rect x="0" y="40" width="240" height="860" rx="0" fill="#F3EEE6"/><line x1="240" y1="40" x2="240" y2="900" stroke="#E3DACC"/><text x="20" y="74" font-size="13" font-weight="600" fill="#3B6A4D" text-anchor="start" font-family="'Atkinson Hyperlegible Next', 'Segoe UI', system-ui, sans-serif">‹ Back to notes</text><text x="20" y="116" font-size="20" font-weight="600" fill="#2B2521" text-anchor="start" font-family="'Atkinson Hyperlegible Next', 'Segoe UI', system-ui, sans-serif">Settings</text><text x="20" y="157" font-size="14" font-weight="400" fill="#2B2521" text-anchor="start" font-family="'Atkinson Hyperlegible Next', 'Segoe UI', system-ui, sans-serif">General</text><rect x="8" y="172" width="224" height="32" rx="6" fill="#DDE8DA"/><text x="20" y="193" font-size="14" font-weight="400" fill="#2B2521" text-anchor="start" font-family="'Atkinson Hyperlegible Next', 'Segoe UI', system-ui, sans-serif">Appearance</text><text x="20" y="229" font-size="14" font-weight="400" fill="#2B2521" text-anchor="start" font-family="'Atkinson Hyperlegible Next', 'Segoe UI', system-ui, sans-serif">Pen and ink</text><text x="20" y="265" font-size="14" font-weight="400" fill="#2B2521" text-anchor="start" font-family="'Atkinson Hyperlegible Next', 'Segoe UI', system-ui, sans-serif">Recording</text><text x="20" y="301" font-size="14" font-weight="400" fill="#2B2521" text-anchor="start" font-family="'Atkinson Hyperlegible Next', 'Segoe UI', system-ui, sans-serif">Privacy and AI</text><text x="20" y="337" font-size="14" font-weight="400" fill="#2B2521" text-anchor="start" font-family="'Atkinson Hyperlegible Next', 'Segoe UI', system-ui, sans-serif">Updates</text><text x="20" y="373" font-size="14" font-weight="400" fill="#2B2521" text-anchor="start" font-family="'Atkinson Hyperlegible Next', 'Segoe UI', system-ui, sans-serif">Shortcuts</text><text x="20" y="409" font-size="14" font-weight="400" fill="#2B2521" text-anchor="start" font-family="'Atkinson Hyperlegible Next', 'Segoe UI', system-ui, sans-serif">About</text>
<text x="288" y="100" font-size="24" font-weight="600" fill="#2B2521" text-anchor="start" font-family="'Atkinson Hyperlegible Next', 'Segoe UI', system-ui, sans-serif">Appearance</text><text x="288" y="140" font-size="15" font-weight="600" fill="#2B2521" text-anchor="start" font-family="'Atkinson Hyperlegible Next', 'Segoe UI', system-ui, sans-serif">Theme</text><rect x="288" y="152" width="160" height="132" rx="10" fill="#FFFCF6" stroke="#E3DACC" stroke-width="1"/><rect x="298" y="162" width="140" height="80" rx="0" fill="#F3EEE6"/><rect x="337" y="172" width="91" height="70" rx="4" fill="#FFFCF6"/><rect x="306" y="178" width="19" height="7" rx="3.5" fill="#877B6C"/><rect x="306" y="192" width="13" height="7" rx="3.5" fill="#877B6C"/><rect x="306" y="206" width="17" height="7" rx="3.5" fill="#877B6C"/><rect x="349" y="186" width="56" height="7" rx="3.5" fill="#6B6054"/><rect x="349" y="200" width="70" height="7" rx="3.5" fill="#6B6054"/><rect x="349" y="214" width="47.6" height="7" rx="3.5" fill="#6B6054"/><circle cx="357" cy="220" r="6" fill="#3B6A4D"/><circle cx="306" cy="263" r="8" fill="none" stroke="#877B6C" stroke-width="2"/><text x="322" y="268" font-size="14" font-weight="400" fill="#2B2521" text-anchor="start" font-family="'Atkinson Hyperlegible Next', 'Segoe UI', system-ui, sans-serif">Light</text><rect x="460" y="152" width="160" height="132" rx="10" fill="#FFFCF6" stroke="#E3DACC" stroke-width="1"/><rect x="470" y="162" width="140" height="80" rx="0" fill="#1C1916"/><rect x="509" y="172" width="91" height="70" rx="4" fill="#24201C"/><rect x="478" y="178" width="19" height="7" rx="3.5" fill="#8D8174"/><rect x="478" y="192" width="13" height="7" rx="3.5" fill="#8D8174"/><rect x="478" y="206" width="17" height="7" rx="3.5" fill="#8D8174"/><rect x="521" y="186" width="56" height="7" rx="3.5" fill="#ABA093"/><rect x="521" y="200" width="70" height="7" rx="3.5" fill="#ABA093"/><rect x="521" y="214" width="47.6" height="7" rx="3.5" fill="#ABA093"/><circle cx="529" cy="220" r="6" fill="#8FC29D"/><circle cx="478" cy="263" r="8" fill="none" stroke="#877B6C" stroke-width="2"/><text x="494" y="268" font-size="14" font-weight="400" fill="#2B2521" text-anchor="start" font-family="'Atkinson Hyperlegible Next', 'Segoe UI', system-ui, sans-serif">Dark</text><rect x="632" y="152" width="160" height="132" rx="10" fill="#FFFCF6" stroke="#3B6A4D" stroke-width="3"/><rect x="642" y="162" width="70" height="80" rx="0" fill="#F3EEE6"/><rect x="662" y="172" width="40" height="70" rx="4" fill="#FFFCF6"/><rect x="650" y="178" width="0" height="7" rx="3.5" fill="#877B6C"/><rect x="650" y="192" width="-6" height="7" rx="3.5" fill="#877B6C"/><rect x="650" y="206" width="-2" height="7" rx="3.5" fill="#877B6C"/><rect x="674" y="186" width="28" height="7" rx="3.5" fill="#6B6054"/><rect x="674" y="200" width="35" height="7" rx="3.5" fill="#6B6054"/><rect x="674" y="214" width="23.8" height="7" rx="3.5" fill="#6B6054"/><circle cx="682" cy="220" r="6" fill="#3B6A4D"/><rect x="712" y="162" width="70" height="80" rx="0" fill="#1C1916"/><rect x="732" y="172" width="40" height="70" rx="4" fill="#24201C"/><rect x="720" y="178" width="0" height="7" rx="3.5" fill="#8D8174"/><rect x="720" y="192" width="-6" height="7" rx="3.5" fill="#8D8174"/><rect x="720" y="206" width="-2" height="7" rx="3.5" fill="#8D8174"/><rect x="744" y="186" width="28" height="7" rx="3.5" fill="#ABA093"/><rect x="744" y="200" width="35" height="7" rx="3.5" fill="#ABA093"/><rect x="744" y="214" width="23.8" height="7" rx="3.5" fill="#ABA093"/><circle cx="752" cy="220" r="6" fill="#8FC29D"/><circle cx="650" cy="263" r="8" fill="none" stroke="#3B6A4D" stroke-width="2"/><circle cx="650" cy="263" r="4" fill="#3B6A4D"/><text x="666" y="268" font-size="14" font-weight="400" fill="#2B2521" text-anchor="start" font-family="'Atkinson Hyperlegible Next', 'Segoe UI', system-ui, sans-serif">Match Windows</text><text x="288" y="312" font-size="13" font-weight="400" fill="#5C534A" text-anchor="start" font-family="'Atkinson Hyperlegible Next', 'Segoe UI', system-ui, sans-serif">Quick toggle: ☾ in the title bar, or Ctrl+Shift+D (Change…)</text><text x="288" y="356" font-size="15" font-weight="600" fill="#2B2521" text-anchor="start" font-family="'Atkinson Hyperlegible Next', 'Segoe UI', system-ui, sans-serif">Page color in dark mode</text><circle cx="296" cy="381" r="8" fill="none" stroke="#3B6A4D" stroke-width="2"/><circle cx="296" cy="381" r="4" fill="#3B6A4D"/><text x="312" y="386" font-size="14" font-weight="400" fill="#2B2521" text-anchor="start" font-family="'Atkinson Hyperlegible Next', 'Segoe UI', system-ui, sans-serif">Match the theme (default)</text><circle cx="296" cy="411" r="8" fill="none" stroke="#877B6C" stroke-width="2"/><text x="312" y="416" font-size="14" font-weight="400" fill="#2B2521" text-anchor="start" font-family="'Atkinson Hyperlegible Next', 'Segoe UI', system-ui, sans-serif">Always paper white</text><text x="288" y="466" font-size="15" font-weight="600" fill="#2B2521" text-anchor="start" font-family="'Atkinson Hyperlegible Next', 'Segoe UI', system-ui, sans-serif">Text size</text><rect x="288" y="484" width="360" height="4" rx="2" fill="#E3DACC"/><rect x="288" y="484" width="120" height="4" rx="2" fill="#3B6A4D"/><circle cx="408" cy="486" r="9" fill="#3B6A4D"/><text x="668" y="492" font-size="13" font-weight="400" fill="#5C534A" text-anchor="start" font-family="'Atkinson Hyperlegible Next', 'Segoe UI', system-ui, sans-serif">100%</text><text x="288" y="540" font-size="15" font-weight="600" fill="#2B2521" text-anchor="start" font-family="'Atkinson Hyperlegible Next', 'Segoe UI', system-ui, sans-serif">Reduce motion</text><text x="288" y="562" font-size="13" font-weight="400" fill="#5C534A" text-anchor="start" font-family="'Atkinson Hyperlegible Next', 'Segoe UI', system-ui, sans-serif">Follows the Windows animation setting</text><rect x="748" y="534" width="40" height="22" rx="11" fill="#3B6A4D"/><circle cx="777" cy="545" r="8" fill="#FFFCF6"/>
<rect x="828" y="80" width="480" height="470" rx="12" fill="#FFFDF9" stroke="#E3DACC" stroke-width="1"/><text x="852" y="120" font-size="20" font-weight="600" fill="#2B2521" text-anchor="start" font-family="'Atkinson Hyperlegible Next', 'Segoe UI', system-ui, sans-serif">Updates</text><text x="852" y="144" font-size="13" font-weight="400" fill="#5C534A" text-anchor="start" font-family="'Atkinson Hyperlegible Next', 'Segoe UI', system-ui, sans-serif">OpenNote 0.4.0 · Stable channel</text><rect x="852" y="164" width="432" height="92" rx="10" fill="#E2ECE1"/><text x="868" y="192" font-size="15" font-weight="600" fill="#2B2521" text-anchor="start" font-family="'Atkinson Hyperlegible Next', 'Segoe UI', system-ui, sans-serif">Version 0.5.0 is ready</text><text x="868" y="212" font-size="13" font-weight="400" fill="#5C534A" text-anchor="start" font-family="'Atkinson Hyperlegible Next', 'Segoe UI', system-ui, sans-serif">Downloaded and checked. Takes about 2 seconds.</text><rect x="868" y="222" width="150" height="26" rx="6" fill="#3B6A4D"/><text x="943" y="240" font-size="13" font-weight="600" fill="#FFFCF6" text-anchor="middle" font-family="'Atkinson Hyperlegible Next', 'Segoe UI', system-ui, sans-serif">Restart to update</text><text x="1034" y="240" font-size="13" font-weight="600" fill="#3B6A4D" text-anchor="start" font-family="'Atkinson Hyperlegible Next', 'Segoe UI', system-ui, sans-serif">What's new</text><circle cx="860" cy="289" r="8" fill="none" stroke="#3B6A4D" stroke-width="2"/><circle cx="860" cy="289" r="4" fill="#3B6A4D"/><text x="876" y="294" font-size="14" font-weight="400" fill="#2B2521" text-anchor="start" font-family="'Atkinson Hyperlegible Next', 'Segoe UI', system-ui, sans-serif">Install updates automatically (recommended)</text><circle cx="860" cy="319" r="8" fill="none" stroke="#877B6C" stroke-width="2"/><text x="876" y="324" font-size="14" font-weight="400" fill="#2B2521" text-anchor="start" font-family="'Atkinson Hyperlegible Next', 'Segoe UI', system-ui, sans-serif">Ask before installing</text><circle cx="860" cy="349" r="8" fill="none" stroke="#877B6C" stroke-width="2"/><text x="876" y="354" font-size="14" font-weight="400" fill="#2B2521" text-anchor="start" font-family="'Atkinson Hyperlegible Next', 'Segoe UI', system-ui, sans-serif">Only check when I ask</text><text x="852" y="396" font-size="14" font-weight="600" fill="#2B2521" text-anchor="start" font-family="'Atkinson Hyperlegible Next', 'Segoe UI', system-ui, sans-serif">Channel</text><rect x="928" y="378" width="120" height="28" rx="6" fill="none" stroke="#877B6C" stroke-width="1"/><text x="940" y="397" font-size="13" font-weight="400" fill="#2B2521" text-anchor="start" font-family="'Atkinson Hyperlegible Next', 'Segoe UI', system-ui, sans-serif">Stable ▾</text><text x="852" y="442" font-size="13" font-weight="600" fill="#3B6A4D" text-anchor="start" font-family="'Atkinson Hyperlegible Next', 'Segoe UI', system-ui, sans-serif">Go back to version 0.3.2</text><text x="852" y="484" font-size="13" font-weight="400" fill="#6B6054" text-anchor="start" font-family="'Atkinson Hyperlegible Next', 'Segoe UI', system-ui, sans-serif">Updates never change your notes or settings.</text><text x="852" y="504" font-size="13" font-weight="400" fill="#6B6054" text-anchor="start" font-family="'Atkinson Hyperlegible Next', 'Segoe UI', system-ui, sans-serif">A backup is made before any file conversion.</text>
<rect x="1302" y="0" width="138" height="40" rx="0" fill="url(#hatch)" stroke="#C2185B" stroke-width="1" stroke-dasharray="4 3"/><rect x="1280" y="46" width="161" height="17" rx="8.5" fill="#FFFFFF" stroke="#C2185B" stroke-width="1"/><text x="1286" y="58" font-size="11" font-weight="600" fill="#C2185B" text-anchor="start" font-family="'Atkinson Hyperlegible Next', 'Segoe UI', system-ui, sans-serif">Window buttons 138×40</text>
<rect x="2" y="128" width="236" height="300" rx="0" fill="none" stroke="#6A3FB5" stroke-width="1.5" stroke-dasharray="6 4"/>
<rect x="8" y="448" width="161" height="17" rx="8.5" fill="#FFFFFF" stroke="#6A3FB5" stroke-width="1"/><text x="14" y="460" font-size="11" font-weight="600" fill="#6A3FB5" text-anchor="start" font-family="'Atkinson Hyperlegible Next', 'Segoe UI', system-ui, sans-serif">Settings sections 240</text>
<rect x="1062" y="6" width="110" height="28" rx="0" fill="none" stroke="#6A3FB5" stroke-width="1.5" stroke-dasharray="6 4"/>
<rect x="842" y="66" width="378" height="17" rx="8.5" fill="#FFFFFF" stroke="#6A3FB5" stroke-width="1"/><text x="848" y="78" font-size="11" font-weight="600" fill="#6A3FB5" text-anchor="start" font-family="'Atkinson Hyperlegible Next', 'Segoe UI', system-ui, sans-serif">Update notice lives in the title bar, never a pop-up</text>
<rect x="288" y="628" width="658" height="17" rx="8.5" fill="#FFFFFF" stroke="#6A3FB5" stroke-width="1"/><text x="294" y="640" font-size="11" font-weight="600" fill="#6A3FB5" text-anchor="start" font-family="'Atkinson Hyperlegible Next', 'Segoe UI', system-ui, sans-serif">The Appearance and Updates sections are shown side by side here; the app shows one at a time</text>
<rect x="0" y="900" width="1440" height="44" rx="0" fill="#FFFFFF"/><line x1="0" y1="900" x2="1440" y2="900" stroke="#D9D9D9"/><rect x="16" y="914" width="28" height="16" rx="0" fill="url(#hatch)" stroke="#C2185B" stroke-width="1" stroke-dasharray="4 3"/><text x="52" y="927" font-size="12" font-weight="400" fill="#333" text-anchor="start" font-family="'Atkinson Hyperlegible Next', 'Segoe UI', system-ui, sans-serif">Keep-out zone: nothing interactive or important goes here</text><rect x="470" y="914" width="28" height="16" rx="0" fill="none" stroke="#6A3FB5" stroke-width="1.5" stroke-dasharray="6 4"/><text x="506" y="927" font-size="12" font-weight="400" fill="#333" text-anchor="start" font-family="'Atkinson Hyperlegible Next', 'Segoe UI', system-ui, sans-serif">Layout region with its size in pixels (at 100% scaling)</text><text x="1424" y="927" font-size="12" font-weight="400" fill="#666" text-anchor="end" font-family="'Atkinson Hyperlegible Next', 'Segoe UI', system-ui, sans-serif">OpenNote wireframe · colors from brand/tokens.json</text>
</svg>
